<?xml version="1.0" standalone="no"?>
<!DOCTYPE svg PUBLIC "-//W3C//DTD SVG 20010904//EN"
 "http://www.w3.org/TR/2001/REC-SVG-20010904/DTD/svg10.dtd">
<svg version="1.0" xmlns="http://www.w3.org/2000/svg"
 width="1280.000000pt" height="816.000000pt" viewBox="0 0 1280.000000 816.000000"
 preserveAspectRatio="xMidYMid meet">
<metadata>
Created by potrace 1.15, written by Peter Selinger 2001-2017
</metadata>
<g transform="translate(0.000000,816.000000) scale(0.100000,-0.100000)"
fill="#000000" stroke="none">
<path d="M5088 8150 c-536 -49 -968 -244 -1331 -603 -63 -62 -144 -149 -181
-194 -65 -80 -67 -81 -99 -72 -67 19 -277 61 -407 80 -175 27 -566 37 -719 19
-622 -72 -1030 -346 -1157 -777 -31 -108 -42 -278 -25 -403 6 -47 13 -93 14
-104 2 -14 -11 -23 -52 -37 -92 -32 -274 -123 -367 -185 -105 -69 -255 -217
-302 -295 -102 -173 -106 -342 -13 -499 l39 -64 -39 -51 c-90 -120 -132 -262
-112 -381 60 -347 514 -603 1336 -753 128 -24 214 -44 224 -53 13 -14 12 -24
-11 -98 -69 -218 -29 -391 127 -557 154 -162 455 -318 807 -418 132 -38 144
-45 183 -119 l33 -64 -52 18 c-130 45 -202 55 -394 54 -166 -1 -195 -4 -285
-27 -181 -48 -310 -129 -354 -222 -28 -59 -27 -100 5 -164 54 -108 231 -200
453 -235 l76 -12 -71 -7 c-100 -10 -251 -50 -331 -88 -72 -34 -183 -134 -183
-164 0 -13 -5 -15 -18 -9 -174 76 -383 93 -561 44 -161 -45 -251 -119 -251
-207 0 -80 97 -157 250 -199 83 -23 337 -26 420 -5 77 19 180 67 213 98 l27
27 38 -23 c164 -98 419 -147 646 -123 307 32 519 149 542 298 24 163 -208 322
-501 344 -55 4 -82 8 -60 9 54 2 206 27 280 46 144 38 292 135 325 214 l12 31
37 -33 c208 -188 546 -259 906 -191 44 8 108 18 141 21 61 5 63 5 185 -60 346
-183 666 -270 1044 -284 487 -17 1001 104 1560 367 127 60 121 60 365 17 240
-42 403 -58 655 -64 438 -10 761 42 1086 176 259 107 476 255 690 472 75 76
148 143 163 149 15 5 80 10 144 10 290 0 640 30 836 70 346 71 565 207 667
415 63 129 72 177 74 375 1 96 3 181 4 187 0 7 86 56 191 108 222 110 344 183
457 271 105 83 165 151 211 244 34 68 37 81 37 160 -1 95 -23 158 -90 251 -19
27 -35 52 -35 55 0 3 26 34 58 69 171 187 170 378 -2 586 -51 62 -176 173
-257 228 l-35 24 0 171 c-1 246 -35 407 -129 603 -170 352 -536 597 -1040 696
-137 27 -380 57 -464 57 -47 0 -54 4 -113 56 -154 137 -397 303 -589 399 -633
320 -1402 387 -2354 205 -187 -36 -379 -79 -560 -126 l-140 -36 -100 31 c-55
16 -135 39 -177 51 -43 11 -111 29 -150 39 -206 55 -540 117 -779 146 -152 18
-539 27 -671 15z m-2511 -6226 c-3 -3 -12 -4 -19 -1 -8 3 -5 6 6 6 11 1 17 -2
13 -5z"/>
<path d="M1320 1056 c-141 -30 -252 -92 -283 -159 -22 -46 -21 -72 4 -116 120
-215 775 -213 889 2 56 105 -36 208 -235 262 -82 23 -291 28 -375 11z"/>
<path d="M250 911 c-122 -27 -155 -93 -70 -141 41 -22 56 -24 160 -24 128 1
182 15 213 56 16 22 17 28 6 46 -31 50 -207 86 -309 63z"/>
<path d="M178 238 c-42 -11 -88 -49 -88 -73 0 -9 11 -26 24 -39 66 -67 339
-55 377 17 16 29 -17 68 -77 89 -54 19 -176 22 -236 6z"/>
</g>
</svg>
