<?xml version="1.0" standalone="no"?>
<!DOCTYPE svg PUBLIC "-//W3C//DTD SVG 20010904//EN"
 "http://www.w3.org/TR/2001/REC-SVG-20010904/DTD/svg10.dtd">
<svg version="1.0" xmlns="http://www.w3.org/2000/svg"
 width="1248.000000pt" height="1280.000000pt" viewBox="0 0 1248.000000 1280.000000"
 preserveAspectRatio="xMidYMid meet">
<metadata>
Created by potrace 1.15, written by Peter Selinger 2001-2017
</metadata>
<g transform="translate(0.000000,1280.000000) scale(0.100000,-0.100000)"
fill="#000000" stroke="none">
<path d="M7140 12789 c-334 -38 -660 -173 -937 -388 -98 -76 -257 -234 -329
-326 -270 -346 -430 -777 -451 -1213 -4 -84 -10 -135 -17 -137 -6 -1 -62 -14
-124 -29 -407 -95 -797 -350 -1064 -696 -157 -205 -315 -568 -384 -887 -14
-65 -26 -118 -27 -119 -1 -1 -29 2 -62 7 -165 21 -462 5 -658 -36 -432 -90
-872 -332 -1172 -647 -202 -211 -357 -517 -427 -841 -19 -87 -22 -134 -22
-329 l-1 -226 -80 -22 c-102 -28 -236 -81 -349 -137 -825 -413 -1222 -1312
-950 -2156 72 -226 204 -459 358 -636 146 -166 635 -471 934 -582 93 -34 93
-34 88 -64 -29 -153 -33 -357 -11 -513 74 -522 339 -1003 735 -1334 499 -418
1151 -589 1802 -472 l88 16 26 -33 c56 -70 292 -297 369 -356 439 -332 942
-525 1590 -610 162 -21 625 -24 790 -5 781 91 1428 375 1864 821 63 65 178
202 217 259 1 2 63 -32 137 -77 376 -223 691 -340 1030 -382 138 -16 423 -6
551 20 397 82 789 277 1214 607 149 116 281 289 402 529 343 677 259 1475
-218 2079 -135 172 -359 365 -559 483 -152 89 -379 185 -529 223 l-42 10 5
163 c12 339 -50 623 -204 936 l-76 155 32 105 c62 210 91 353 117 581 19 176
19 541 0 725 -74 685 -312 1297 -697 1795 -91 118 -298 331 -404 417 -153 123
-387 262 -537 318 -27 10 -48 21 -48 25 0 4 9 33 20 65 36 105 98 368 121 515
27 173 33 519 11 655 -34 206 -81 353 -172 540 -160 327 -402 607 -795 920
-98 78 -139 103 -225 139 -314 132 -621 180 -930 145z"/>
</g>
</svg>
